<?xml version="1.0" encoding="UTF-8" standalone="no"?>
<!-- Created with Inkscape (http://www.inkscape.org/) -->

<svg
   xmlns:dc="http://purl.org/dc/elements/1.1/"
   xmlns:cc="http://creativecommons.org/ns#"
   xmlns:rdf="http://www.w3.org/1999/02/22-rdf-syntax-ns#"
   xmlns:svg="http://www.w3.org/2000/svg"
   xmlns="http://www.w3.org/2000/svg"
   xmlns:sodipodi="http://sodipodi.sourceforge.net/DTD/sodipodi-0.dtd"
   xmlns:inkscape="http://www.inkscape.org/namespaces/inkscape"
   width="39.000595mm"
   height="11.63667mm"
   viewBox="0 0 39.000595 11.63667"
   version="1.1"
   id="svg1637"
   inkscape:version="0.92.5 (2060ec1f9f, 2020-04-08)"
   sodipodi:docname="bitsandpieces.svg">
  <defs
     id="defs1631" />
  <sodipodi:namedview
     id="base"
     pagecolor="#ffffff"
     bordercolor="#666666"
     borderopacity="1.0"
     inkscape:pageopacity="0.0"
     inkscape:pageshadow="2"
     inkscape:zoom="3.959798"
     inkscape:cx="28.888673"
     inkscape:cy="45.94463"
     inkscape:document-units="mm"
     inkscape:current-layer="layer1"
     showgrid="false"
     inkscape:window-width="1855"
     inkscape:window-height="1056"
     inkscape:window-x="65"
     inkscape:window-y="24"
     inkscape:window-maximized="1"
     fit-margin-top="0"
     fit-margin-left="0"
     fit-margin-right="0"
     fit-margin-bottom="0" />
  <metadata
     id="metadata1634">
    <rdf:RDF>
      <cc:Work
         rdf:about="">
        <dc:format>image/svg+xml</dc:format>
        <dc:type
           rdf:resource="http://purl.org/dc/dcmitype/StillImage" />
        <dc:title />
      </cc:Work>
    </rdf:RDF>
  </metadata>
  <g
     inkscape:label="Layer 1"
     inkscape:groupmode="layer"
     id="layer1"
     transform="translate(-26.586966,-15.555918)">
    <g
       transform="matrix(0.6566657,0,0,0.6566657,-34.076132,-27.070995)"
       id="g1192-9-8">
      <g
         aria-label="B"
         transform="matrix(0.26458333,0,0,0.26458333,-0.29277313,-0.37453422)"
         style="font-style:normal;font-variant:normal;font-weight:normal;font-stretch:normal;font-size:40px;line-height:1.25;font-family:'Alte Haas Grotesk';-inkscape-font-specification:'Alte Haas Grotesk';letter-spacing:0px;word-spacing:0px;fill:#000000;fill-opacity:1;stroke:none"
         id="flowRoot1032-2-6">
        <path
           d="m 458.79219,274.88048 q 2.92,-2.04 2.92,-6.44 0,-2.6 -0.96,-4.4 -0.92,-1.68 -3.44,-2.8 1.84,-0.92 2.8,-2.56 0.96,-1.64 0.96,-3.68 0,-2.28 -0.88,-3.8 -0.84,-1.52 -2.28,-2.4 -1.44,-0.92 -3.32,-1.28 -1.84,-0.36 -3.8,-0.36 h -11.12 v 29.76 h 10.84 q 5.48,0 8.28,-2.04 z m -5.04,-21.52 q 0.92,0.8 0.92,2.4 0,0.76 -0.32,1.32 -0.28,0.52 -0.76,0.88 -0.48,0.36 -1.12,0.56 -0.64,0.16 -1.32,0.16 h -5.08 v -6.16 h 4.92 q 1.84,0 2.76,0.84 z m 0.56,11.56 q 1,0.88 1,2.8 0,2.12 -1.04,3 -1.04,0.84 -3.08,0.84 h -5.12 v -7.52 h 5.04 q 2.12,0 3.2,0.88 z"
           style="font-style:normal;font-variant:normal;font-weight:normal;font-stretch:normal;font-family:OldSansBlack;-inkscape-font-specification:OldSansBlack"
           id="path3349" />
      </g>
      <g
         aria-label="I"
         transform="matrix(0.26458333,0,0,0.26458333,-6.0611265,-1.403412)"
         style="font-style:normal;font-variant:normal;font-weight:normal;font-stretch:normal;font-size:40px;line-height:1.25;font-family:OldSansBlack;-inkscape-font-specification:OldSansBlack;letter-spacing:0px;word-spacing:0px;fill:#000000;fill-opacity:1;stroke:none"
         id="flowRoot1040-7-3">
        <path
           d="m 488.51617,280.80915 h 6.4 v -29.76 h -6.4 z"
           style=""
           id="path3352" />
      </g>
      <g
         aria-label="T"
         transform="matrix(0.26458333,0,0,0.26458333,-24.32575,0.84192898)"
         style="font-style:normal;font-variant:normal;font-weight:normal;font-stretch:normal;font-size:40px;line-height:1.25;font-family:OldSansBlack;-inkscape-font-specification:OldSansBlack;letter-spacing:0px;word-spacing:0px;fill:#000000;fill-opacity:1;stroke:none"
         id="flowRoot1048-2-2">
        <path
           d="m 582.44016,248.04283 h 7.56 v -5.48 h -21.44 v 5.48 h 7.52 v 24.28 h 6.36 z"
           style=""
           id="path3355" />
      </g>
      <g
         aria-label="S"
         transform="matrix(0.26458333,0,0,0.26458333,-36.043592,0.37374051)"
         style="font-style:normal;font-variant:normal;font-weight:normal;font-stretch:normal;font-size:40px;line-height:1.25;font-family:OldSansBlack;-inkscape-font-specification:OldSansBlack;letter-spacing:0px;word-spacing:0px;fill:#000000;fill-opacity:1;stroke:none"
         id="flowRoot1056-9-9">
        <path
           d="m 656.04297,272.17236 q 2.8,-2.4 2.8,-6.76 0,-4.04 -2.84,-6.16 -2.68,-2.08 -6.08,-3.24 -2.4,-0.84 -4.32,-1.92 -0.92,-0.52 -1.32,-1.08 -0.36,-0.56 -0.36,-1.16 0,-0.76 0.32,-1.28 0.36,-0.56 0.88,-0.84 0.56,-0.32 1.2,-0.44 0.68,-0.16 1.32,-0.16 2,0 3.08,1.08 1.12,1.04 1.84,2.76 l 5.88,-1.8 q -0.88,-2.04 -1.96,-3.36 -1.08,-1.32 -2.48,-2.16 -2.8,-1.72 -6.32,-1.72 -4.2,0 -7,2.32 -2.8,2.32 -2.8,5.88 0,3.6 2.4,5.64 2.28,1.88 6.92,3.64 2.36,0.88 4.04,2 1.52,1 1.52,2.48 0,1 -0.36,1.68 -0.36,0.64 -1,1.04 -0.6,0.36 -1.4,0.52 -0.8,0.16 -1.64,0.16 -1.2,0 -2.16,-0.32 -0.92,-0.36 -1.64,-0.96 -0.72,-0.6 -1.28,-1.44 -0.56,-0.88 -1.04,-1.92 l -5.32,2.32 q 0.92,2.16 2.12,3.56 1.2,1.36 2.84,2.24 3.08,1.72 6.32,1.72 5.04,0 7.84,-2.32 z"
           style=""
           id="path3358" />
      </g>
      <g
         aria-label="&amp;"
         transform="matrix(0.26458333,0,0,0.26458333,-46.445837,1.122532)"
         style="font-style:normal;font-variant:normal;font-weight:normal;font-stretch:normal;font-size:40px;line-height:1.25;font-family:OldSansBlack;-inkscape-font-specification:OldSansBlack;letter-spacing:0px;word-spacing:0px;fill:#000000;fill-opacity:1;stroke:none"
         id="flowRoot1064-4-4">
        <path
           d="m 745.57109,271.22228 q 0.72,0.2 1.56,0.32 0.88,0.12 2.04,0.12 v -5.48 q -0.88,-0.08 -1.84,-0.44 -0.92,-0.36 -2.16,-1.16 1.16,-1.72 2,-3.52 0.88,-1.84 1.56,-3.84 l -5.24,-1.4 q -0.52,1.4 -1.12,2.72 -0.6,1.32 -1.4,2.6 -0.92,-0.84 -2,-2.08 -1.08,-1.24 -2.36,-2.92 1.68,-1.24 3.28,-3.04 2.08,-2.28 2.08,-5.12 0,-3.04 -2.24,-4.96 -2.16,-1.92 -5.08,-1.92 -1.64,0 -3.08,0.52 -1.4,0.48 -2.44,1.4 -1.04,0.92 -1.64,2.28 -0.6,1.32 -0.6,3.04 0,1.04 0.16,1.92 0.16,0.88 0.44,1.68 0.28,0.8 0.68,1.6 0.44,0.76 1,1.6 -2.12,1.4 -3.4,3.24 -1.24,1.84 -1.24,4.48 0,3.64 2.36,6.24 2.4,2.56 7.32,2.56 2.28,0 4,-0.76 1.72,-0.72 3.4,-2.12 0.8,0.68 1.84,1.4 1.08,0.72 2.12,1.04 z m -9.68,-25.28 q 0.56,0.68 0.56,1.92 0,0.6 -0.28,1.2 -0.28,0.56 -0.72,1.12 -0.44,0.52 -0.96,1 -0.48,0.44 -0.92,0.76 l -0.12,-0.2 q -1.04,-1.8 -1.04,-3.8 0,-1.24 0.64,-2 0.64,-0.68 1.36,-0.68 0.88,0 1.48,0.68 z m 0.08,17.6 q 0.32,0.32 0.72,0.68 0.4,0.36 0.84,0.8 -1.48,1.12 -3.24,1.12 -0.68,0 -1.36,-0.28 -0.64,-0.32 -1.16,-0.8 -0.52,-0.52 -0.84,-1.16 -0.32,-0.64 -0.32,-1.32 0,-1.16 0.44,-1.8 0.48,-0.64 1.28,-1.32 1,1.2 1.88,2.24 0.92,1 1.76,1.84 z"
           style=""
           id="path3361" />
      </g>
    </g>
    <g
       id="g1170-6-4"
       transform="matrix(0.6566657,0,0,0.6566657,-34.076132,-28.422394)">
      <g
         aria-label="P"
         transform="matrix(0.26458333,0,0,0.26458333,10.851146,-7.2032534)"
         style="font-style:normal;font-variant:normal;font-weight:normal;font-stretch:normal;font-size:40px;line-height:1.25;font-family:OldSansBlack;-inkscape-font-specification:OldSansBlack;letter-spacing:0px;word-spacing:0px;fill:#000000;fill-opacity:1;stroke:none"
         id="flowRoot1072-1-8">
        <path
           d="m 416.39344,332.96439 q 2.84,-2.32 2.84,-6.72 0,-2.48 -0.84,-4.2 -0.8,-1.76 -2.24,-2.84 -1.44,-1.08 -3.4,-1.56 -1.92,-0.48 -4.2,-0.48 h -11 v 29.76 h 6.4 v -11.68 h 4.56 q 5.12,0 7.88,-2.28 z m -4.68,-9.56 q 0.52,0.4 0.8,1.12 0.28,0.68 0.28,1.8 0,1.12 -0.4,1.84 -0.4,0.68 -1.08,1.08 -0.64,0.36 -1.52,0.52 -0.84,0.12 -1.8,0.12 h -4.04 v -7.36 h 4.04 q 2.6,0 3.72,0.88 z"
           style=""
           id="path3331" />
      </g>
      <g
         aria-label="I"
         transform="matrix(0.26458333,0,0,0.26458333,-7.7447446,-8.6998029)"
         style="font-style:normal;font-variant:normal;font-weight:normal;font-stretch:normal;font-size:40px;line-height:1.25;font-family:OldSansBlack;-inkscape-font-specification:OldSansBlack;letter-spacing:0px;word-spacing:0px;fill:#000000;fill-opacity:1;stroke:none"
         id="flowRoot1080-2-2">
        <path
           d="m 494.87945,352.58064 h 6.4 v -29.76 h -6.4 z"
           style=""
           id="path3334" />
      </g>
      <g
         aria-label="E"
         transform="matrix(0.26458333,0,0,0.26458333,-21.305387,-8.9804059)"
         style="font-style:normal;font-variant:normal;font-weight:normal;font-stretch:normal;font-size:40px;line-height:1.25;font-family:OldSansBlack;-inkscape-font-specification:OldSansBlack;letter-spacing:0px;word-spacing:0px;fill:#000000;fill-opacity:1;stroke:none"
         id="flowRoot1088-5-6">
        <path
           d="m 557.64461,353.64119 h 20.44 v -5.52 h -14.08 v -7.24 l 9.92,-0.04 v -5.44 h -9.92 v -6 h 13.6 v -5.52 h -19.96 z"
           style=""
           id="path3337" />
      </g>
      <g
         aria-label="C"
         transform="matrix(0.26458333,0,0,0.26458333,-36.399994,-9.7286806)"
         style="font-style:normal;font-variant:normal;font-weight:normal;font-stretch:normal;font-size:40px;line-height:1.25;font-family:OldSansBlack;-inkscape-font-specification:OldSansBlack;letter-spacing:0px;word-spacing:0px;fill:#000000;fill-opacity:1;stroke:none"
         id="flowRoot1096-6-1">
        <path
           d="m 656.55,354.86931 q 1.4,-1 2.44,-2.52 1.08,-1.52 1.96,-3.8 l -6,-1.56 q -0.44,0.96 -0.92,1.76 -0.48,0.8 -1.08,1.4 -0.6,0.56 -1.44,0.88 -0.8,0.32 -1.96,0.32 -2.96,0 -4.24,-2.36 -1.4,-2.44 -1.4,-7.2 0,-0.88 0.04,-1.96 0.08,-1.08 0.28,-2.16 0.2,-1.12 0.56,-2.16 0.4,-1.04 1,-1.84 0.6,-0.84 1.48,-1.32 0.92,-0.52 2.12,-0.52 2.08,0 3.2,1.2 1.12,1.2 1.76,3.04 l 5.84,-1.4 q -0.76,-2.6 -1.8,-4.2 -1,-1.64 -2.4,-2.48 -2.76,-1.68 -6.4,-1.68 -3.36,0 -5.68,1.28 -2.32,1.28 -3.76,3.44 -1.4,2.12 -2.04,4.88 -0.6,2.76 -0.6,5.68 0,2.96 0.6,5.72 0.64,2.72 2.04,4.88 1.4,2.12 3.72,3.4 2.32,1.28 5.68,1.28 4.24,0 7,-2 z"
           style=""
           id="path3340" />
      </g>
      <g
         aria-label="E"
         transform="matrix(0.26458333,0,0,0.26458333,-48.065511,-10.289887)"
         style="font-style:normal;font-variant:normal;font-weight:normal;font-stretch:normal;font-size:40px;line-height:1.25;font-family:OldSansBlack;-inkscape-font-specification:OldSansBlack;letter-spacing:0px;word-spacing:0px;fill:#000000;fill-opacity:1;stroke:none"
         id="flowRoot1104-3-9">
        <path
           d="m 709.67391,358.5904 h 20.44 v -5.52 h -14.08 v -7.24 l 9.92,-0.04 v -5.44 h -9.92 v -6 h 13.6 v -5.52 h -19.96 z"
           style=""
           id="path3343" />
      </g>
      <g
         aria-label="S"
         transform="matrix(0.26458333,0,0,0.26458333,-56.222501,-10.383421)"
         style="font-style:normal;font-variant:normal;font-weight:normal;font-stretch:normal;font-size:40px;line-height:1.25;font-family:OldSansBlack;-inkscape-font-specification:OldSansBlack;letter-spacing:0px;word-spacing:0px;fill:#000000;fill-opacity:1;stroke:none"
         id="flowRoot1112-2-7">
        <path
           d="m 783.32227,357.02392 q 2.8,-2.4 2.8,-6.76 0,-4.04 -2.84,-6.16 -2.68,-2.08 -6.08,-3.24 -2.4,-0.84 -4.32,-1.92 -0.92,-0.52 -1.32,-1.08 -0.36,-0.56 -0.36,-1.16 0,-0.76 0.32,-1.28 0.36,-0.56 0.88,-0.84 0.56,-0.32 1.2,-0.44 0.68,-0.16 1.32,-0.16 2,0 3.08,1.08 1.12,1.04 1.84,2.76 l 5.88,-1.8 q -0.88,-2.04 -1.96,-3.36 -1.08,-1.32 -2.48,-2.16 -2.8,-1.72 -6.32,-1.72 -4.2,0 -7,2.32 -2.8,2.32 -2.8,5.88 0,3.6 2.4,5.64 2.28,1.88 6.92,3.64 2.36,0.88 4.04,2 1.52,1 1.52,2.48 0,1 -0.36,1.68 -0.36,0.64 -1,1.04 -0.6,0.36 -1.4,0.52 -0.8,0.16 -1.64,0.16 -1.2,0 -2.16,-0.32 -0.92,-0.36 -1.64,-0.96 -0.72,-0.6 -1.28,-1.44 -0.56,-0.88 -1.04,-1.92 l -5.32,2.32 q 0.92,2.16 2.12,3.56 1.2,1.36 2.84,2.24 3.08,1.72 6.32,1.72 5.04,0 7.84,-2.32 z"
           style=""
           id="path3346" />
      </g>
    </g>
    <g
       id="g861"
       transform="matrix(1.0248995,0,0,1.0248995,10.829609,-0.38290797)">
      <rect
         ry="0.40044379"
         y="15.622367"
         x="15.374538"
         height="3.2035503"
         width="3.2035503"
         id="rect3354-36"
         style="fill:#000000;fill-opacity:1;stroke:none;stroke-width:0.88097632;stroke-miterlimit:4;stroke-dasharray:none;stroke-opacity:1" />
      <rect
         ry="0.40044379"
         y="15.622367"
         x="19.378977"
         height="11.212426"
         width="3.2035503"
         id="rect3354-9-7"
         style="fill:#000000;fill-opacity:1;stroke:none;stroke-width:1.64815581;stroke-miterlimit:4;stroke-dasharray:none;stroke-opacity:1" />
      <rect
         ry="0.40044379"
         y="15.622367"
         x="23.383415"
         height="3.2035503"
         width="3.2035503"
         id="rect3354-3-5"
         style="fill:#000000;fill-opacity:1;stroke:none;stroke-width:0.88097632;stroke-miterlimit:4;stroke-dasharray:none;stroke-opacity:1" />
      <rect
         ry="0.40044379"
         y="23.631243"
         x="15.374538"
         height="3.2035503"
         width="3.2035503"
         id="rect3354-6-3"
         style="fill:#000000;fill-opacity:1;stroke:none;stroke-width:0.88097632;stroke-miterlimit:4;stroke-dasharray:none;stroke-opacity:1" />
      <rect
         ry="0.40044379"
         y="19.626804"
         x="23.383415"
         height="3.2035503"
         width="3.2035503"
         id="rect3354-6-0-5"
         style="fill:#000000;fill-opacity:1;stroke:none;stroke-width:0.88097632;stroke-miterlimit:4;stroke-dasharray:none;stroke-opacity:1" />
    </g>
  </g>
</svg>
